#!OML:ASF H:\ManfredETheater\Project 1\Capture day 1\Session 1\subject.ASF
:FULLY-SPECIFIED
:DEGREES
249
root -0.837759 14.8569 -6.60741 -109.855 19.8469 180.838
lowerback 43.6091 2.55728 -5.55887
upperback 12.3039 3.73447 1.95001
thorax -6.95746 2.36687 3.29153
lowerneck 0.423397 -6.9497 -5.22337
upperneck -34.6809 -7.57381 5.60881
head -10.7514 -1.78916 3.29482
rclavicle 4.69132e-014 7.15625e-014
rhumerus 48.1942 11.5888 -59.072
rradius 26.1157
rwrist 3.38811
rhand -57.4122 -42.5887
rfingers 7.12502
rthumb -29.685 -70.2325
lclavicle 4.69132e-014 7.15625e-014
lhumerus 87.8532 4.24926 65.8872
lradius 24.8123
lwrist -16.211
lhand -58.6195 12.2759
lfingers 7.12502
lthumb -30.8367 39.7083
rfemur -85.2017 -19.6198 29.468
rtibia 112.894
rfoot -8.20611 -10.6968
rtoes -24.1029
lfemur -75.2221 10.7266 -9.98238
ltibia 67.9079
lfoot -30.2204 1.36543
ltoes -36.7684
250
root -0.654104 15.0093 -7.06271 -110.27 20.2359 181.896
lowerback 44.3314 2.64645 -5.411
upperback 12.562 3.9554 1.97889
thorax -6.87482 2.47482 3.13733
lowerneck 0.279413 -6.71133 -4.80912
upperneck -34.5734 -7.26249 5.34709
head -10.7364 -1.69889 3.10371
rclavicle 2.84262e-014 4.60187e-014
rhumerus 48.7555 14.9908 -55.821
rradius 26.2986
rwrist 2.13527
rhand -52.559 -40.752
rfingers 7.12502
rthumb -25.0432 -69.1303
lclavicle 2.84262e-014 4.60187e-014
lhumerus 84.7324 4.72302 64.4789
lradius 25.7207
lwrist -13.9297
lhand -59.4657 9.52712
lfingers 7.12502
lthumb -31.643 36.804
rfemur -88.8037 -20.3479 31.0855
rtibia 111.842
rfoot -7.91845 -12.3339
rtoes -23.3115
lfemur -70.8442 9.98394 -8.26745
ltibia 64.9818
lfoot -27.6447 0.822991
ltoes -36.4505
251
root -0.46224 15.1635 -7.51798 -110.855 20.4909 182.872
lowerback 45.2424 2.65499 -5.22531
upperback 12.7925 4.09946 2.02339
thorax -6.85832 2.55203 3.00501
lowerneck 0.0300476 -6.4924 -4.34168
upperneck -34.2464 -6.97084 5.10647
head -10.6121 -1.64899 2.9038
rclavicle -4.83047e-014 -9.93923e-015
rhumerus 49.5859 18.4729 -52.2552
rradius 27.0349
rwrist 0.943732
rhand -46.0379 -38.3273
rfingers 7.12502
rthumb -18.7822 -67.4406
lclavicle -4.83047e-014 -9.93923e-015
lhumerus 81.5793 5.18495 63.0097
lradius 26.2071
lwrist -11.765
lhand -59.9996 5.7768
lfingers 7.12502
lthumb -32.1514 32.9523
rfemur -92.1074 -20.7959 33.1106
rtibia 110.067
rfoot -7.7928 -13.7071
rtoes -23.3602
lfemur -66.3536 9.0004 -6.57971
ltibia 61.8863
lfoot -24.4394 0.231713
ltoes -35.8937
252
root -0.262175 15.3177 -7.97306 -111.51 20.6508 183.815
lowerback 46.2418 2.60197 -5.07118
upperback 12.9705 4.1506 2.06863
thorax -6.90663 2.58802 2.92454
lowerneck -0.236794 -6.26895 -3.87674
upperneck -33.7922 -6.66412 4.92656
head -10.4306 -1.61223 2.72356
rclavicle -8.54029e-014 -2.72335e-014
rhumerus 50.7914 21.9821 -48.4298
rradius 28.2763
rwrist -0.266015
rhand -37.6566 -35.576
rfingers 7.12502
rthumb -10.708 -65.2831
lclavicle -8.54029e-014 -2.72335e-014
lhumerus 78.4545 5.69421 61.6289
lradius 26.0114
lwrist -10.6417
lhand -60.309 3.24086
lfingers 7.12502
lthumb -32.4459 30.3563
rfemur -95.1056 -20.9213 35.4539
rtibia 107.597
rfoot -7.86883 -14.7141
rtoes -24.3779
lfemur -61.851 7.81714 -4.93669
ltibia 58.6821
lfoot -20.5302 -0.210122
ltoes -35.1371
253
root -0.0541049 15.4687 -8.42781 -112.154 20.7596 184.776
lowerback 47.2603 2.53538 -5.01636
upperback 13.0884 4.13076 2.12412
thorax -7.01472 2.58898 2.93411
lowerneck -0.582014 -6.03639 -3.45505
upperneck -33.1893 -6.34064 4.77876
head -10.1741 -1.57506 2.55676
rclavicle -7.49418e-014 -7.85199e-014
rhumerus 52.4334 25.3953 -44.3925
rradius 29.989
rwrist -1.59796
rhand -27.3369 -32.5729
rfingers 7.12502
rthumb -0.745456 -62.5514
lclavicle -7.49418e-014 -7.85199e-014
lhumerus 75.4236 6.30692 60.5539
lradius 25.0281
lwrist -11.1218
lhand -60.549 3.02776
lfingers 7.12502
lthumb -32.6744 30.0961
rfemur -97.7365 -20.6835 37.975
rtibia 104.464
rfoot -8.1907 -15.279
rtoes -26.2787
lfemur -57.4193 6.47467 -3.35453
ltibia 55.4535
lfoot -15.9068 -0.367336
ltoes -33.9799
254
root 0.162972 15.6149 -8.88296 -112.71 20.8732 185.813
lowerback 49.2205 2.58654 -5.1271
upperback 12.1036 4.01286 2.2057
thorax -7.16561 2.54537 3.00128
lowerneck -0.870933 -5.75932 -3.08509
upperneck -32.5426 -5.95528 4.67378
head -9.91144 -1.51061 2.41347
rclavicle -1.28017e-013 -8.17005e-014
rhumerus 54.5352 28.6711 -40.2117
rradius 32.1628
rwrist -3.25553
rhand -15.1216 -29.423
rfingers 7.12502
rthumb 11.0475 -59.1123
lclavicle -1.28017e-013 -8.17005e-014
lhumerus 72.371 7.07644 59.7112
lradius 23.4784
lwrist -13.0029
lhand -60.6894 5.15149
lfingers 7.12502
lthumb -32.8079 32.192
rfemur -99.9539 -20.0659 40.5765
rtibia 100.693
rfoot -8.75318 -15.3508
rtoes -28.8746
lfemur -53.1107 4.9756 -1.84075
ltibia 52.2915
lfoot -10.6343 -0.0797749
ltoes -32.2029
255
root 0.388592 15.7524 -9.33751 -113.124 21.042 186.937
lowerback 50.0956 2.63478 -5.44593
upperback 12.0265 3.89219 2.25267
thorax -7.36533 2.48885 3.22348
lowerneck -1.08241 -5.43953 -2.77728
upperneck -31.9329 -5.51472 4.58454
head -9.67769 -1.40848 2.2877
rclavicle -7.91163e-014 2.06736e-014
rhumerus 57.1016 31.6859 -35.8139
rradius 34.8244
rwrist -5.43672
rhand -1.36741 -26.4348
rfingers 7.12502
rthumb 24.28 -54.9172
lclavicle -7.91163e-014 2.06736e-014
lhumerus 69.2801 7.93892 59.0596
lradius 21.6539
lwrist -15.5661
lhand -60.6578 8.35753
lfingers 7.12502
lthumb -32.7778 35.4044
rfemur -101.72 -19.101 43.1439
rtibia 96.3355
rfoot -9.59964 -14.8821
rtoes -31.818
lfemur -49.0009 3.31539 -0.445946
ltibia 49.3156
lfoot -4.84564 0.591829
ltoes -29.247
256
root 0.621941 15.878 -9.79058 -113.381 21.2994 188.117
lowerback 50.7748 2.77505 -5.94401
upperback 11.9292 3.77239 2.30037
thorax -7.55413 2.42647 3.53432
lowerneck -1.27783 -5.09621 -2.52851
upperneck -31.3691 -5.04592 4.48521
head -9.46432 -1.2744 2.16896
rclavicle -3.65764e-014 -3.53837e-014
rhumerus 60.0618 34.2766 -31.1991
rradius 37.9675
rwrist -8.16393
rhand 13.1728 -24.0346
rfingers 7.12502
rthumb 38.129 -49.7986
lclavicle -3.65764e-014 -3.53837e-014
lhumerus 66.1604 8.78583 58.5884
lradius 19.8987
lwrist -18.0353
lhand -60.3822 11.1076
lfingers 7.12502
lthumb -32.5156 38.2088
rfemur -103.026 -17.8523 45.59
rtibia 91.4467
rfoot -10.6455 -13.8608
rtoes -34.862
lfemur -45.1639 1.47034 0.753405
ltibia 46.6571
lfoot 1.04178 1.45727
ltoes -24.8586
257
root 0.86166 15.9882 -10.2401 -113.477 21.6681 189.294
lowerback 51.1896 2.99476 -6.58249
upperback 11.8355 3.66312 2.33467
thorax -7.69914 2.36428 3.89792
lowerneck -1.45916 -4.73615 -2.36151
upperneck -30.8548 -4.54931 4.417
head -9.26954 -1.11076 2.07545
rclavicle -1.51076e-014 2.34566e-014
rhumerus 63.2291 36.3192 -26.534
rradius 41.5351
rwrist -11.1938
rhand 27.0745 -22.2599
rfingers 7.12502
rthumb 51.0586 -42.9085
lclavicle -1.51076e-014 2.34566e-014
lhumerus 63.064 9.48933 58.2901
lradius 18.3882
lwrist -19.9418
lhand -59.8649 12.9768
lfingers 7.12502
lthumb -32.0232 40.1781
rfemur -103.897 -16.3917 47.8372
rtibia 86.0943
rfoot -11.7572 -12.2877
rtoes -37.833
lfemur -41.7011 -0.493561 1.63407
ltibia 44.4659
lfoot 6.4519 2.28413
ltoes -19.538
258
root 1.10577 16.0806 -10.6841 -113.449 22.153 190.375
lowerback 51.3139 3.24368 -7.29597
upperback 11.7627 3.5477 2.33436
thorax -7.77693 2.2976 4.26921
lowerneck -1.62963 -4.38736 -2.18897
upperneck -30.4074 -4.07106 4.32714
head -9.10182 -0.942638 1.97672
rclavicle -3.18055e-015 -7.95139e-015
rhumerus 66.3816 37.7547 -22.0314
rradius 45.4284
rwrist -14.1957
rhand 38.9008 -21.0192
rfingers 7.12502
rthumb 61.4779 -33.1484
lclavicle -3.18055e-015 -7.95139e-015
lhumerus 60.0788 9.94578 58.1386
lradius 17.1329
lwrist -21.1014
lhand -59.0391 13.9428
lfingers 7.12502
lthumb -31.2367 41.2989
rfemur -104.361 -14.8148 49.7889
rtibia 80.3598
rfoot -12.7427 -10.2234
rtoes -40.6153
lfemur -38.7079 -2.43125 2.06271
ltibia 42.8955
lfoot 10.9389 2.76614
ltoes -13.646
